<svg viewBox="0 0 64 64" xmlns="http://www.w3.org/2000/svg">
  <rect width="64" height="64" fill="none"/>
  <!-- Tree/branch shapes -->
  <path d="M10 56 L10 30 Q10 22 18 18 Q14 10 22 8 Q28 4 32 10 Q36 4 42 8 Q50 10 46 18 Q54 22 54 30 L54 56" fill="none" stroke="#000" stroke-width="1.5" stroke-linecap="round" stroke-linejoin="round" opacity="0.5"/>
  <!-- Leaf clusters -->
  <circle cx="20" cy="16" r="5" fill="none" stroke="#000" stroke-width="1" opacity="0.6"/>
  <circle cx="32" cy="10" r="6" fill="none" stroke="#000" stroke-width="1" opacity="0.6"/>
  <circle cx="44" cy="16" r="5" fill="none" stroke="#000" stroke-width="1" opacity="0.6"/>
  <!-- Soft light rays through leaves -->
  <line x1="28" y1="20" x2="26" y2="34" stroke="#000" stroke-width="0.8" stroke-linecap="round" opacity="0.3" stroke-dasharray="2 3"/>
  <line x1="32" y1="22" x2="32" y2="38" stroke="#000" stroke-width="0.8" stroke-linecap="round" opacity="0.3" stroke-dasharray="2 3"/>
  <line x1="36" y1="20" x2="38" y2="34" stroke="#000" stroke-width="0.8" stroke-linecap="round" opacity="0.3" stroke-dasharray="2 3"/>
  <!-- Portrait figure below -->
  <circle cx="32" cy="46" r="6" fill="none" stroke="#000" stroke-width="1.5"/>
  <path d="M24 58 Q24 54 32 54 Q40 54 40 58" fill="none" stroke="#000" stroke-width="1.5" stroke-linecap="round"/>
</svg>
